<?xml version="1.0" encoding="UTF-8" standalone="yes"?>
<!DOCTYPE svg PUBLIC "-//W3C//DTD SVG 1.1//EN" "http://www.w3.org/Graphics/SVG/1.1/DTD/svg11.dtd">

<svg width="500" height="500" viewBox="0 0 500 500" xmlns="http://www.w3.org/2000/svg" xmlns:xlink="http://www.w3.org/1999/xlink" version="1.1" baseProfile="full">
    <g transform="scale(1,-1) translate(0,-500)">
        <path d="M 73.697468 157.025311 L 53.750598 157.025311 L 75.087493 258.914200 L 95.034363 258.914200 L 87.389221 222.634527 Q 94.130846 227.916625 99.968955 230.244918 Q 105.807063 232.573212 112.479186 232.573212 Q 121.444853 232.573212 126.657449 227.430116 Q 131.870046 222.287021 131.870046 213.946866 Q 131.870046 209.498784 129.924010 200.185611 L 120.888842 157.025311 L 100.941973 157.025311 L 110.185644 201.019627 Q 111.645171 208.178259 111.645171 210.193797 Q 111.645171 213.877365 109.351629 216.101406 Q 107.058086 218.325447 103.096513 218.325447 Q 98.092420 218.325447 93.505335 214.850383 Q 87.528224 210.263298 84.400666 203.591174 Q 82.663134 199.907606 79.813581 186.285354 Z M 154.109578 230.835679 L 174.056448 230.835679 L 164.951779 187.119369 Q 163.283748 179.265723 163.283748 177.319687 Q 163.283748 174.122628 165.646792 171.829086 Q 168.009836 169.535543 171.693404 169.535543 Q 174.334453 169.535543 176.906001 170.543312 Q 179.477549 171.551080 182.188099 173.601368 Q 184.898649 175.651656 187.053189 178.292705 Q 189.207729 180.933754 191.084264 185.242834 Q 192.404788 188.439893 193.933816 195.668027 L 201.300953 230.835679 L 221.247823 230.835679 L 205.818537 157.025311 L 187.192192 157.025311 L 189.277230 167.033497 Q 177.045003 155.287779 162.658237 155.287779 Q 153.553568 155.287779 148.340971 160.500376 Q 143.128375 165.712972 143.128375 174.470135 Q 143.128375 178.292705 145.491419 189.690917 Z M 223.123478 153.133239 L 244.182368 150.075182 Q 244.182368 146.878123 245.224887 145.244843 Q 246.267407 143.611563 248.595700 142.464791 Q 250.923993 141.318020 254.955068 141.318020 Q 261.279685 141.318020 265.102256 143.820066 Q 267.951809 145.766103 269.758842 150.075182 Q 270.870863 152.785733 272.608395 161.890401 L 273.303408 165.365466 Q 262.947716 156.747306 251.897011 156.747306 Q 241.054810 156.747306 234.104681 164.392448 Q 227.154552 172.037589 227.154552 186.771863 Q 227.154552 199.768603 231.880640 210.610804 Q 236.606728 221.453005 245.155386 227.013108 Q 253.704045 232.573212 262.600209 232.573212 Q 269.967346 232.573212 276.083459 228.681139 Q 282.199573 224.789067 285.605136 217.769437 L 288.385187 230.835679 L 307.081034 230.835679 L 294.292797 169.327039 Q 291.165239 154.523265 289.010699 148.198648 Q 286.856159 141.874030 284.076107 138.120961 Q 281.296056 134.367891 277.056477 131.831094 Q 272.816899 129.294297 267.048292 128.182277 Q 261.279685 127.070256 254.538060 127.070256 Q 238.900270 127.070256 230.907622 132.421855 Q 222.914974 137.773454 222.914974 150.214185 Q 222.914974 151.534709 223.123478 153.133239 Z M 246.614913 188.787400 Q 246.614913 180.377744 250.402733 175.964412 Q 254.190554 171.551080 259.889659 171.551080 Q 265.102256 171.551080 270.002097 175.512654 Q 274.901937 179.474227 277.508236 186.771863 Q 280.114534 194.069498 280.114534 200.880624 Q 280.114534 208.734270 275.874955 213.529859 Q 271.635377 218.325447 266.075274 218.325447 Q 260.723675 218.325447 256.240842 214.085869 Q 251.758008 209.846290 248.838954 201.019627 Q 246.614913 194.208500 246.614913 188.787400 Z M 312.431753 187.675379 Q 312.431753 208.178259 324.003718 220.375735 Q 335.575682 232.573212 354.410531 232.573212 Q 370.743334 232.573212 379.917504 223.572795 Q 389.091674 214.572378 389.091674 199.351596 Q 389.091674 181.420263 377.623962 168.354021 Q 366.156249 155.287779 346.904392 155.287779 Q 336.479199 155.287779 328.417050 159.457856 Q 320.354900 163.627934 316.393327 171.273075 Q 312.431753 178.918217 312.431753 187.675379 Z M 369.283807 201.923143 Q 369.283807 209.012275 365.148480 213.286604 Q 361.013154 217.560933 354.480033 217.560933 Q 348.016413 217.560933 343.012320 213.564609 Q 338.008227 209.568285 335.228176 201.957894 Q 332.448124 194.347503 332.448124 187.953384 Q 332.448124 180.030238 336.757204 175.373651 Q 341.066284 170.717065 347.599405 170.717065 Q 355.800557 170.717065 361.360660 177.736695 Q 369.283807 187.675379 369.283807 201.923143 Z M 22.267394 102.958390 L 41.171745 102.958390 L 39.573215 95.382749 Q 45.619827 100.386842 50.901925 102.541382 Q 56.184023 104.695922 62.230635 104.695922 Q 73.837350 104.695922 80.891731 96.703274 Q 87.946112 88.710626 87.946112 72.864332 Q 87.946112 52.917462 75.783386 39.156207 Q 65.358193 27.410490 51.110429 27.410490 Q 36.445657 27.410490 28.939518 39.295210 L 20.946870 1.000000 L 1.000000 1.000000 Z M 34.291117 60.632105 Q 34.291117 52.013946 38.495945 47.253107 Q 42.700773 42.492269 48.399879 42.492269 Q 53.334470 42.492269 57.921555 46.071585 Q 62.508640 49.650902 65.531946 57.956306 Q 68.555252 66.261710 68.555252 73.350841 Q 68.555252 81.621494 64.593679 86.034826 Q 60.632105 90.448158 54.515992 90.448158 Q 48.816886 90.448158 44.125549 86.382333 Q 39.434212 82.316507 36.862665 74.428111 Q 34.291117 66.539715 34.291117 60.632105 Z M 107.127587 102.958390 L 125.753933 102.958390 L 122.765377 88.641124 Q 133.190570 104.695922 145.353296 104.695922 Q 149.662376 104.695922 154.596967 102.541382 L 146.951825 86.208579 Q 144.241275 87.181597 141.183219 87.181597 Q 136.040123 87.181597 130.723275 83.289525 Q 125.406426 79.397453 122.417871 72.899083 Q 119.429315 66.400712 116.510261 52.291951 L 111.645171 29.148022 L 91.698301 29.148022 Z M 167.870833 131.036910 L 187.817703 131.036910 L 184.064634 112.966575 L 164.117764 112.966575 Z M 162.032725 102.958390 L 181.979595 102.958390 L 166.550309 29.148022 L 146.603439 29.148022 Z M 199.354037 102.958390 L 218.119385 102.958390 L 216.242850 93.992724 Q 227.224054 104.695922 239.317278 104.695922 Q 247.657432 104.695922 252.175016 101.220858 Q 256.692600 97.745793 257.943623 91.629680 Q 261.766194 97.189783 268.924827 100.942852 Q 276.083459 104.695922 283.798102 104.695922 Q 292.624766 104.695922 297.559357 99.969834 Q 302.493949 95.243747 302.493949 87.459603 Q 302.493949 83.637032 300.547913 74.254358 L 291.095738 29.148022 L 271.148868 29.148022 L 280.601043 74.254358 Q 282.338575 82.733515 282.338575 83.845536 Q 282.338575 86.903592 280.496791 88.675875 Q 278.655007 90.448158 274.971439 90.448158 Q 267.534801 90.448158 261.696693 82.594512 Q 257.457114 76.964908 254.468559 62.647643 L 247.448929 29.148022 L 227.502059 29.148022 L 236.815231 73.767849 Q 238.413761 81.482492 238.413761 83.776034 Q 238.413761 86.695088 236.432974 88.571623 Q 234.452188 90.448158 230.977123 90.448158 Q 227.710563 90.448158 224.235498 88.502122 Q 220.760434 86.556086 218.154136 83.150523 Q 215.547837 79.744960 213.671303 74.393360 Q 212.837287 71.891314 210.960752 63.064650 L 203.871621 29.148022 L 183.924751 29.148022 Z M 381.377031 59.867591 L 331.336104 59.867591 Q 331.266602 58.686069 331.266602 58.060558 Q 331.266602 50.693421 335.471430 46.175837 Q 339.676258 41.658254 345.722870 41.658254 Q 355.661555 41.658254 361.221658 51.944444 L 379.083489 48.955889 Q 373.870892 38.183189 365.148480 32.796839 Q 356.426069 27.410490 345.583868 27.410490 Q 330.710592 27.410490 321.397419 36.827914 Q 312.084247 46.245339 312.084247 61.744126 Q 312.084247 76.895407 320.493903 88.710626 Q 331.961615 104.695922 353.229009 104.695922 Q 366.781761 104.695922 374.774409 96.321017 Q 382.767057 87.946112 382.767057 72.864332 Q 382.767057 65.636198 381.377031 59.867591 Z M 364.557719 72.030317 Q 364.627221 73.350841 364.627221 74.045854 Q 364.627221 82.247006 360.943652 86.347582 Q 357.260084 90.448158 351.074470 90.448158 Q 344.888855 90.448158 339.989014 85.791572 Q 335.089173 81.134985 333.351641 72.030317 Z M 401.392522 102.958390 L 420.018868 102.958390 L 417.030312 88.641124 Q 427.455505 104.695922 439.618231 104.695922 Q 443.927311 104.695922 448.861902 102.541382 L 441.216761 86.208579 Q 438.506210 87.181597 435.448154 87.181597 Q 430.305058 87.181597 424.988210 83.289525 Q 419.671361 79.397453 416.682806 72.899083 Q 413.694250 66.400712 410.775196 52.291951 L 405.910106 29.148022 L 385.963236 29.148022 Z" transform="scale(1.000000,1.000000) translate(25.069049,120.042900)" opacity="1.000000"></path>
    </g>
</svg>