<?xml version="1.0" encoding="UTF-8" standalone="no"?><!DOCTYPE svg PUBLIC "-//W3C//DTD SVG 1.1//EN" "http://www.w3.org/Graphics/SVG/1.1/DTD/svg11.dtd"><svg width="100%" height="100%" viewBox="0 0 200 200" version="1.1" xmlns="http://www.w3.org/2000/svg" xmlns:xlink="http://www.w3.org/1999/xlink" xml:space="preserve" xmlns:serif="http://www.serif.com/" style="fill-rule:evenodd;clip-rule:evenodd;stroke-linejoin:round;stroke-miterlimit:1.41421;"><rect id="qq" x="0" y="0" width="200" height="200" style="fill:none;"/><g><path d="M28.126,85.512c0,6.859 2.22,12.483 6.658,16.871c4.439,4.388 10.163,6.582 17.174,6.582c7.011,0 12.748,-2.232 17.212,-6.695c4.464,-4.464 6.696,-10.151 6.696,-17.061c0,-6.859 -2.232,-12.521 -6.696,-16.985c-4.464,-4.463 -10.201,-6.695 -17.212,-6.695c-7.061,0 -12.798,2.244 -17.212,6.733c-4.413,4.489 -6.62,10.239 -6.62,17.25Zm47.437,53.792l0,-30.187c-3.127,3.53 -6.935,6.241 -11.424,8.133c-4.489,1.891 -9.432,2.837 -14.829,2.837c-9.936,0 -18.145,-3.203 -24.626,-9.609c-6.481,-6.405 -9.722,-14.576 -9.722,-24.512c0,-10.39 3.417,-19.003 10.252,-25.837c6.834,-6.834 15.345,-10.251 25.534,-10.251c4.741,0 9.179,0.882 13.315,2.648c4.136,1.765 7.969,4.413 11.5,7.943l0,-7.338c0,-1.059 0.34,-1.841 1.021,-2.346c0.681,-0.504 1.778,-0.756 3.291,-0.756l11.424,0c2.018,0 3.506,0.429 4.464,1.286c0.959,0.857 1.438,2.194 1.438,4.01c0,2.017 -0.618,3.43 -1.854,4.237c-1.236,0.807 -3.543,1.21 -6.922,1.21l-1.438,0l0,78.532l1.438,0c3.429,0 5.775,0.403 7.036,1.21c1.261,0.807 1.891,2.219 1.891,4.237c0,1.765 -0.504,3.102 -1.513,4.01c-1.009,0.908 -2.522,1.361 -4.54,1.361l-33.44,0c-2.37,0 -4.022,-0.403 -4.955,-1.21c-0.933,-0.807 -1.4,-2.194 -1.4,-4.161c0,-1.816 0.505,-3.178 1.513,-4.086c1.009,-0.907 2.472,-1.361 4.388,-1.361l18.158,0Z" style="fill:#98d8ff;fill-rule:nonzero;"/><path d="M113.164,85.512c0,6.859 2.219,12.483 6.658,16.871c4.439,4.388 10.163,6.582 17.174,6.582c7.011,0 12.748,-2.232 17.212,-6.695c4.464,-4.464 6.696,-10.151 6.696,-17.061c0,-6.859 -2.232,-12.521 -6.696,-16.985c-4.464,-4.463 -10.201,-6.695 -17.212,-6.695c-7.061,0 -12.799,2.244 -17.212,6.733c-4.413,4.489 -6.62,10.239 -6.62,17.25Zm47.437,53.792l0,-30.187c-3.127,3.53 -6.935,6.241 -11.424,8.133c-4.489,1.891 -9.432,2.837 -14.829,2.837c-9.936,0 -18.145,-3.203 -24.626,-9.609c-6.481,-6.405 -9.722,-14.576 -9.722,-24.512c0,-10.39 3.417,-19.003 10.251,-25.837c6.835,-6.834 15.346,-10.251 25.535,-10.251c4.741,0 9.179,0.882 13.315,2.648c4.136,1.765 7.969,4.413 11.5,7.943l0,-7.338c0,-1.059 0.34,-1.841 1.021,-2.346c0.681,-0.504 1.778,-0.756 3.291,-0.756l11.424,0c2.018,0 3.506,0.429 4.464,1.286c0.958,0.857 1.438,2.194 1.438,4.01c0,2.017 -0.618,3.43 -1.854,4.237c-1.236,0.807 -3.543,1.21 -6.923,1.21l-1.437,0l0,78.532l1.437,0c3.43,0 5.776,0.403 7.037,1.21c1.26,0.807 1.891,2.219 1.891,4.237c0,1.765 -0.504,3.102 -1.513,4.01c-1.009,0.908 -2.522,1.361 -4.54,1.361l-33.44,0c-2.37,0 -4.022,-0.403 -4.955,-1.21c-0.933,-0.807 -1.4,-2.194 -1.4,-4.161c0,-1.816 0.504,-3.178 1.513,-4.086c1.009,-0.907 2.472,-1.361 4.388,-1.361l18.158,0Z" style="fill:#98d8ff;fill-rule:nonzero;"/></g></svg>